{
	"asset":{
		"generator":"Khronos glTF Blender I/O v4.1.63",
		"version":"2.0"
	},
	"extensionsUsed":[
		"EXT_texture_webp"
	],
	"scene":0,
	"scenes":[
		{
			"name":"Scene",
			"nodes":[
				0,
				1,
				2,
				3,
				4,
				5,
				6,
				7,
				8,
				9,
				10,
				11,
				12,
				13,
				14,
				15,
				16
			]
		}
	],
	"nodes":[
		{
			"mesh":0,
			"name":"\u30e1\u30c3\u30b7\u30e5.002",
			"scale":[
				0.0024999999441206455,
				1,
				0.002499999711290002
			],
			"translation":[
				0.45500001311302185,
				0,
				0
			]
		},
		{
			"mesh":1,
			"name":"\u30e1\u30c3\u30b7\u30e5.003",
			"scale":[
				0.0024999999441206455,
				1,
				0.002499999711290002
			],
			"translation":[
				-0.45500001311302185,
				0,
				0
			]
		},
		{
			"mesh":2,
			"name":"\u30e1\u30c3\u30b7\u30e5.004",
			"rotation":[
				0,
				-0.7071068286895752,
				0,
				0.7071067094802856
			],
			"scale":[
				0.002500000176951289,
				1,
				0.0024999999441206455
			],
			"translation":[
				0,
				0.004999999888241291,
				-0.4569999873638153
			]
		},
		{
			"mesh":3,
			"name":"\u7acb\u65b9\u4f53",
			"scale":[
				0.6000000238418579,
				0.009999999776482582,
				0.6000000238418579
			],
			"translation":[
				0,
				1.0099999904632568,
				0
			]
		},
		{
			"mesh":4,
			"name":"\u7acb\u65b9\u4f53.001",
			"scale":[
				0.004999999888241291,
				1,
				0.004999999888241291
			],
			"translation":[
				-0.5049999952316284,
				0,
				-0.45500001311302185
			]
		},
		{
			"mesh":5,
			"name":"\u7acb\u65b9\u4f53.002",
			"scale":[
				0.004999999888241291,
				1,
				0.004999999888241291
			],
			"translation":[
				-0.45500001311302185,
				0,
				-0.5049999952316284
			]
		},
		{
			"mesh":6,
			"name":"\u7acb\u65b9\u4f53.003",
			"scale":[
				0.004999999888241291,
				1,
				0.004999999888241291
			],
			"translation":[
				0.45500001311302185,
				0,
				0.5049999952316284
			]
		},
		{
			"mesh":7,
			"name":"\u7acb\u65b9\u4f53.004",
			"scale":[
				0.004999999888241291,
				1,
				0.004999999888241291
			],
			"translation":[
				-0.5049999952316284,
				0,
				0.45500001311302185
			]
		},
		{
			"mesh":8,
			"name":"\u7acb\u65b9\u4f53.005",
			"scale":[
				0.004999999888241291,
				1,
				0.004999999888241291
			],
			"translation":[
				0.5049999952316284,
				0,
				0.45500001311302185
			]
		},
		{
			"mesh":9,
			"name":"\u7acb\u65b9\u4f53.006",
			"scale":[
				0.004999999888241291,
				1,
				0.004999999888241291
			],
			"translation":[
				-0.45500001311302185,
				0,
				0.5049999952316284
			]
		},
		{
			"mesh":10,
			"name":"\u7acb\u65b9\u4f53.007",
			"scale":[
				0.004999999888241291,
				1,
				0.004999999888241291
			],
			"translation":[
				0.5049999952316284,
				0,
				-0.45500001311302185
			]
		},
		{
			"mesh":11,
			"name":"\u7acb\u65b9\u4f53.008",
			"rotation":[
				0,
				0,
				-0.7071068286895752,
				0.7071067094802856
			],
			"scale":[
				0.005000000353902578,
				0.4750000536441803,
				0.004999999888241291
			],
			"translation":[
				0,
				-0.9950000047683716,
				0.46000000834465027
			]
		},
		{
			"mesh":12,
			"name":"\u7acb\u65b9\u4f53.009",
			"scale":[
				0.004999999888241291,
				1,
				0.004999999888241291
			],
			"translation":[
				0.45500001311302185,
				0,
				-0.5049999952316284
			]
		},
		{
			"mesh":13,
			"name":"\u7acb\u65b9\u4f53.011",
			"rotation":[
				0,
				0,
				-0.7071068286895752,
				0.7071067094802856
			],
			"scale":[
				0.005000000353902578,
				0.4750000536441803,
				0.004999999888241291
			],
			"translation":[
				0,
				-0.9950000047683716,
				-0.46000000834465027
			]
		},
		{
			"mesh":14,
			"name":"\u7acb\u65b9\u4f53.012",
			"rotation":[
				0.5,
				-0.4999999701976776,
				-0.5,
				0.5
			],
			"scale":[
				0.009999999776482582,
				0.4950000047683716,
				0.004999999888241291
			],
			"translation":[
				0.4519999921321869,
				-1,
				0
			]
		},
		{
			"mesh":15,
			"name":"\u7acb\u65b9\u4f53.013",
			"rotation":[
				0.5,
				-0.4999999701976776,
				-0.5,
				0.5
			],
			"scale":[
				0.009999999776482582,
				0.4950000047683716,
				0.004999999888241291
			],
			"translation":[
				-0.4569999873638153,
				-1,
				0
			]
		},
		{
			"mesh":16,
			"name":"\u30e1\u30c3\u30b7\u30e5.001",
			"rotation":[
				0,
				0.7071068286895752,
				0,
				0.7071067094802856
			],
			"scale":[
				0.002500000176951289,
				1,
				0.0024999999441206455
			],
			"translation":[
				0,
				0.004999999888241291,
				0.4569999873638153
			]
		}
	],
	"materials":[
		{
			"doubleSided":true,
			"name":"\u30de\u30c6\u30ea\u30a2\u30eb.001",
			"normalTexture":{
				"index":0
			},
			"pbrMetallicRoughness":{
				"baseColorTexture":{
					"index":1
				},
				"metallicRoughnessTexture":{
					"index":2
				}
			}
		},
		{
			"doubleSided":true,
			"name":"\u30de\u30c6\u30ea\u30a2\u30eb",
			"normalTexture":{
				"index":3
			},
			"pbrMetallicRoughness":{
				"baseColorTexture":{
					"index":4
				},
				"metallicFactor":0,
				"metallicRoughnessTexture":{
					"index":5
				}
			}
		}
	],
	"meshes":[
		{
			"name":"\u5186\u67f1.003",
			"primitives":[
				{
					"attributes":{
						"POSITION":0,
						"NORMAL":1,
						"TEXCOORD_0":2
					},
					"indices":3,
					"material":0
				}
			]
		},
		{
			"name":"\u5186\u67f1.004",
			"primitives":[
				{
					"attributes":{
						"POSITION":4,
						"NORMAL":5,
						"TEXCOORD_0":6
					},
					"indices":3,
					"material":0
				}
			]
		},
		{
			"name":"\u5186\u67f1.005",
			"primitives":[
				{
					"attributes":{
						"POSITION":7,
						"NORMAL":8,
						"TEXCOORD_0":9
					},
					"indices":3,
					"material":0
				}
			]
		},
		{
			"name":"\u7acb\u65b9\u4f53",
			"primitives":[
				{
					"attributes":{
						"POSITION":10,
						"NORMAL":11,
						"TEXCOORD_0":12
					},
					"indices":13,
					"material":1
				}
			]
		},
		{
			"name":"\u7acb\u65b9\u4f53.001",
			"primitives":[
				{
					"attributes":{
						"POSITION":14,
						"NORMAL":15,
						"TEXCOORD_0":16
					},
					"indices":17,
					"material":1
				}
			]
		},
		{
			"name":"\u7acb\u65b9\u4f53.002",
			"primitives":[
				{
					"attributes":{
						"POSITION":18,
						"NORMAL":19,
						"TEXCOORD_0":20
					},
					"indices":17,
					"material":1
				}
			]
		},
		{
			"name":"\u7acb\u65b9\u4f53.003",
			"primitives":[
				{
					"attributes":{
						"POSITION":21,
						"NORMAL":22,
						"TEXCOORD_0":23
					},
					"indices":17,
					"material":1
				}
			]
		},
		{
			"name":"\u7acb\u65b9\u4f53.004",
			"primitives":[
				{
					"attributes":{
						"POSITION":24,
						"NORMAL":25,
						"TEXCOORD_0":26
					},
					"indices":17,
					"material":1
				}
			]
		},
		{
			"name":"\u7acb\u65b9\u4f53.005",
			"primitives":[
				{
					"attributes":{
						"POSITION":27,
						"NORMAL":28,
						"TEXCOORD_0":29
					},
					"indices":17,
					"material":1
				}
			]
		},
		{
			"name":"\u7acb\u65b9\u4f53.006",
			"primitives":[
				{
					"attributes":{
						"POSITION":30,
						"NORMAL":31,
						"TEXCOORD_0":32
					},
					"indices":17,
					"material":1
				}
			]
		},
		{
			"name":"\u7acb\u65b9\u4f53.007",
			"primitives":[
				{
					"attributes":{
						"POSITION":33,
						"NORMAL":34,
						"TEXCOORD_0":35
					},
					"indices":17,
					"material":1
				}
			]
		},
		{
			"name":"\u7acb\u65b9\u4f53.008",
			"primitives":[
				{
					"attributes":{
						"POSITION":36,
						"NORMAL":37,
						"TEXCOORD_0":38
					},
					"indices":17,
					"material":1
				}
			]
		},
		{
			"name":"\u7acb\u65b9\u4f53.009",
			"primitives":[
				{
					"attributes":{
						"POSITION":39,
						"NORMAL":40,
						"TEXCOORD_0":41
					},
					"indices":17,
					"material":1
				}
			]
		},
		{
			"name":"\u7acb\u65b9\u4f53.011",
			"primitives":[
				{
					"attributes":{
						"POSITION":42,
						"NORMAL":43,
						"TEXCOORD_0":44
					},
					"indices":17,
					"material":1
				}
			]
		},
		{
			"name":"\u7acb\u65b9\u4f53.012",
			"primitives":[
				{
					"attributes":{
						"POSITION":45,
						"NORMAL":46,
						"TEXCOORD_0":47
					},
					"indices":17,
					"material":1
				}
			]
		},
		{
			"name":"\u7acb\u65b9\u4f53.013",
			"primitives":[
				{
					"attributes":{
						"POSITION":48,
						"NORMAL":49,
						"TEXCOORD_0":50
					},
					"indices":17,
					"material":1
				}
			]
		},
		{
			"name":"\u5186\u67f1.002",
			"primitives":[
				{
					"attributes":{
						"POSITION":51,
						"NORMAL":52,
						"TEXCOORD_0":53
					},
					"indices":3,
					"material":0
				}
			]
		}
	],
	"textures":[
		{
			"extensions":{
				"EXT_texture_webp":{
					"source":0
				}
			},
			"sampler":0,
			"source":1
		},
		{
			"extensions":{
				"EXT_texture_webp":{
					"source":2
				}
			},
			"sampler":0,
			"source":3
		},
		{
			"extensions":{
				"EXT_texture_webp":{
					"source":4
				}
			},
			"sampler":0,
			"source":5
		},
		{
			"extensions":{
				"EXT_texture_webp":{
					"source":6
				}
			},
			"sampler":0,
			"source":7
		},
		{
			"extensions":{
				"EXT_texture_webp":{
					"source":8
				}
			},
			"sampler":0,
			"source":9
		},
		{
			"extensions":{
				"EXT_texture_webp":{
					"source":10
				}
			},
			"sampler":0,
			"source":11
		}
	],
	"images":[
		{
			"mimeType":"image/webp",
			"name":"Metal038_4K-JPG_NormalGL",
			"uri":"Metal038_4K-JPG_NormalGL.webp"
		},
		{
			"mimeType":"image/jpeg",
			"name":"Metal038_4K-JPG_NormalGL",
			"uri":"Metal038_4K-JPG_NormalGL.jpg"
		},
		{
			"mimeType":"image/webp",
			"name":"Metal038_4K-JPG_Color",
			"uri":"Metal038_4K-JPG_Color.webp"
		},
		{
			"mimeType":"image/jpeg",
			"name":"Metal038_4K-JPG_Color",
			"uri":"Metal038_4K-JPG_Color.jpg"
		},
		{
			"mimeType":"image/webp",
			"name":"Metal038_4K-JPG_Metalness-Metal038_4K-JPG_Roughness",
			"uri":"Metal038_4K-JPG_Metalness-Metal038_4K-JPG_Roughness.webp"
		},
		{
			"mimeType":"image/png",
			"name":"Metal038_4K-JPG_Metalness-Metal038_4K-JPG_Roughness",
			"uri":"Metal038_4K-JPG_Metalness-Metal038_4K-JPG_Roughness.png"
		},
		{
			"mimeType":"image/webp",
			"name":"Wood027_4K-JPG_NormalGL",
			"uri":"Wood027_4K-JPG_NormalGL.webp"
		},
		{
			"mimeType":"image/jpeg",
			"name":"Wood027_4K-JPG_NormalGL",
			"uri":"Wood027_4K-JPG_NormalGL.jpg"
		},
		{
			"mimeType":"image/webp",
			"name":"Wood027_4K-JPG_Color",
			"uri":"Wood027_4K-JPG_Color.webp"
		},
		{
			"mimeType":"image/jpeg",
			"name":"Wood027_4K-JPG_Color",
			"uri":"Wood027_4K-JPG_Color.jpg"
		},
		{
			"mimeType":"image/webp",
			"name":"Wood027_4K-JPG_Roughness",
			"uri":"Wood027_4K-JPG_Roughness.webp"
		},
		{
			"mimeType":"image/png",
			"name":"Wood027_4K-JPG_Roughness",
			"uri":"Wood027_4K-JPG_Roughness.png"
		}
	],
	"accessors":[
		{
			"bufferView":0,
			"componentType":5126,
			"count":3510,
			"max":[
				1.6666666269302368,
				1.002500057220459,
				199.66671752929688
			],
			"min":[
				-2.3333334922790527,
				-0.9974998831748962,
				-200.3333282470703
			],
			"type":"VEC3"
		},
		{
			"bufferView":1,
			"componentType":5126,
			"count":3510,
			"type":"VEC3"
		},
		{
			"bufferView":2,
			"componentType":5126,
			"count":3510,
			"type":"VEC2"
		},
		{
			"bufferView":3,
			"componentType":5123,
			"count":10044,
			"type":"SCALAR"
		},
		{
			"bufferView":4,
			"componentType":5126,
			"count":3510,
			"max":[
				1.6666666269302368,
				1.002500057220459,
				199.66671752929688
			],
			"min":[
				-2.3333334922790527,
				-0.9974998831748962,
				-200.3333282470703
			],
			"type":"VEC3"
		},
		{
			"bufferView":5,
			"componentType":5126,
			"count":3510,
			"type":"VEC3"
		},
		{
			"bufferView":6,
			"componentType":5126,
			"count":3510,
			"type":"VEC2"
		},
		{
			"bufferView":7,
			"componentType":5126,
			"count":3510,
			"max":[
				1.6666666269302368,
				1.002500057220459,
				199.66671752929688
			],
			"min":[
				-2.3333334922790527,
				-0.9974998831748962,
				-200.3333282470703
			],
			"type":"VEC3"
		},
		{
			"bufferView":8,
			"componentType":5126,
			"count":3510,
			"type":"VEC3"
		},
		{
			"bufferView":9,
			"componentType":5126,
			"count":3510,
			"type":"VEC2"
		},
		{
			"bufferView":10,
			"componentType":5126,
			"count":441,
			"max":[
				1,
				1,
				1
			],
			"min":[
				-1,
				-1,
				-1
			],
			"type":"VEC3"
		},
		{
			"bufferView":11,
			"componentType":5126,
			"count":441,
			"type":"VEC3"
		},
		{
			"bufferView":12,
			"componentType":5126,
			"count":441,
			"type":"VEC2"
		},
		{
			"bufferView":13,
			"componentType":5123,
			"count":2304,
			"type":"SCALAR"
		},
		{
			"bufferView":14,
			"componentType":5126,
			"count":24,
			"max":[
				1,
				1,
				1
			],
			"min":[
				-1,
				-1,
				-1
			],
			"type":"VEC3"
		},
		{
			"bufferView":15,
			"componentType":5126,
			"count":24,
			"type":"VEC3"
		},
		{
			"bufferView":16,
			"componentType":5126,
			"count":24,
			"type":"VEC2"
		},
		{
			"bufferView":17,
			"componentType":5123,
			"count":36,
			"type":"SCALAR"
		},
		{
			"bufferView":18,
			"componentType":5126,
			"count":24,
			"max":[
				1,
				1,
				1
			],
			"min":[
				-1,
				-1,
				-1
			],
			"type":"VEC3"
		},
		{
			"bufferView":19,
			"componentType":5126,
			"count":24,
			"type":"VEC3"
		},
		{
			"bufferView":20,
			"componentType":5126,
			"count":24,
			"type":"VEC2"
		},
		{
			"bufferView":21,
			"componentType":5126,
			"count":24,
			"max":[
				1,
				1,
				1
			],
			"min":[
				-1,
				-1,
				-1
			],
			"type":"VEC3"
		},
		{
			"bufferView":22,
			"componentType":5126,
			"count":24,
			"type":"VEC3"
		},
		{
			"bufferView":23,
			"componentType":5126,
			"count":24,
			"type":"VEC2"
		},
		{
			"bufferView":24,
			"componentType":5126,
			"count":24,
			"max":[
				1,
				1,
				1
			],
			"min":[
				-1,
				-1,
				-1
			],
			"type":"VEC3"
		},
		{
			"bufferView":25,
			"componentType":5126,
			"count":24,
			"type":"VEC3"
		},
		{
			"bufferView":26,
			"componentType":5126,
			"count":24,
			"type":"VEC2"
		},
		{
			"bufferView":27,
			"componentType":5126,
			"count":24,
			"max":[
				1,
				1,
				1
			],
			"min":[
				-1,
				-1,
				-1
			],
			"type":"VEC3"
		},
		{
			"bufferView":28,
			"componentType":5126,
			"count":24,
			"type":"VEC3"
		},
		{
			"bufferView":29,
			"componentType":5126,
			"count":24,
			"type":"VEC2"
		},
		{
			"bufferView":30,
			"componentType":5126,
			"count":24,
			"max":[
				1,
				1,
				1
			],
			"min":[
				-1,
				-1,
				-1
			],
			"type":"VEC3"
		},
		{
			"bufferView":31,
			"componentType":5126,
			"count":24,
			"type":"VEC3"
		},
		{
			"bufferView":32,
			"componentType":5126,
			"count":24,
			"type":"VEC2"
		},
		{
			"bufferView":33,
			"componentType":5126,
			"count":24,
			"max":[
				1,
				1,
				1
			],
			"min":[
				-1,
				-1,
				-1
			],
			"type":"VEC3"
		},
		{
			"bufferView":34,
			"componentType":5126,
			"count":24,
			"type":"VEC3"
		},
		{
			"bufferView":35,
			"componentType":5126,
			"count":24,
			"type":"VEC2"
		},
		{
			"bufferView":36,
			"componentType":5126,
			"count":24,
			"max":[
				1,
				1,
				1
			],
			"min":[
				-1,
				-1,
				-1
			],
			"type":"VEC3"
		},
		{
			"bufferView":37,
			"componentType":5126,
			"count":24,
			"type":"VEC3"
		},
		{
			"bufferView":38,
			"componentType":5126,
			"count":24,
			"type":"VEC2"
		},
		{
			"bufferView":39,
			"componentType":5126,
			"count":24,
			"max":[
				1,
				1,
				1
			],
			"min":[
				-1,
				-1,
				-1
			],
			"type":"VEC3"
		},
		{
			"bufferView":40,
			"componentType":5126,
			"count":24,
			"type":"VEC3"
		},
		{
			"bufferView":41,
			"componentType":5126,
			"count":24,
			"type":"VEC2"
		},
		{
			"bufferView":42,
			"componentType":5126,
			"count":24,
			"max":[
				1,
				1,
				1
			],
			"min":[
				-1,
				-1,
				-1
			],
			"type":"VEC3"
		},
		{
			"bufferView":43,
			"componentType":5126,
			"count":24,
			"type":"VEC3"
		},
		{
			"bufferView":44,
			"componentType":5126,
			"count":24,
			"type":"VEC2"
		},
		{
			"bufferView":45,
			"componentType":5126,
			"count":24,
			"max":[
				1,
				1,
				1
			],
			"min":[
				-1,
				-1,
				-1
			],
			"type":"VEC3"
		},
		{
			"bufferView":46,
			"componentType":5126,
			"count":24,
			"type":"VEC3"
		},
		{
			"bufferView":47,
			"componentType":5126,
			"count":24,
			"type":"VEC2"
		},
		{
			"bufferView":48,
			"componentType":5126,
			"count":24,
			"max":[
				1,
				1,
				1
			],
			"min":[
				-1,
				-1,
				-1
			],
			"type":"VEC3"
		},
		{
			"bufferView":49,
			"componentType":5126,
			"count":24,
			"type":"VEC3"
		},
		{
			"bufferView":50,
			"componentType":5126,
			"count":24,
			"type":"VEC2"
		},
		{
			"bufferView":51,
			"componentType":5126,
			"count":3510,
			"max":[
				1.6666666269302368,
				1.002500057220459,
				199.66671752929688
			],
			"min":[
				-2.3333334922790527,
				-0.9974998831748962,
				-200.3333282470703
			],
			"type":"VEC3"
		},
		{
			"bufferView":52,
			"componentType":5126,
			"count":3510,
			"type":"VEC3"
		},
		{
			"bufferView":53,
			"componentType":5126,
			"count":3510,
			"type":"VEC2"
		}
	],
	"bufferViews":[
		{
			"buffer":0,
			"byteLength":42120,
			"byteOffset":0,
			"target":34962
		},
		{
			"buffer":0,
			"byteLength":42120,
			"byteOffset":42120,
			"target":34962
		},
		{
			"buffer":0,
			"byteLength":28080,
			"byteOffset":84240,
			"target":34962
		},
		{
			"buffer":0,
			"byteLength":20088,
			"byteOffset":112320,
			"target":34963
		},
		{
			"buffer":0,
			"byteLength":42120,
			"byteOffset":132408,
			"target":34962
		},
		{
			"buffer":0,
			"byteLength":42120,
			"byteOffset":174528,
			"target":34962
		},
		{
			"buffer":0,
			"byteLength":28080,
			"byteOffset":216648,
			"target":34962
		},
		{
			"buffer":0,
			"byteLength":42120,
			"byteOffset":244728,
			"target":34962
		},
		{
			"buffer":0,
			"byteLength":42120,
			"byteOffset":286848,
			"target":34962
		},
		{
			"buffer":0,
			"byteLength":28080,
			"byteOffset":328968,
			"target":34962
		},
		{
			"buffer":0,
			"byteLength":5292,
			"byteOffset":357048,
			"target":34962
		},
		{
			"buffer":0,
			"byteLength":5292,
			"byteOffset":362340,
			"target":34962
		},
		{
			"buffer":0,
			"byteLength":3528,
			"byteOffset":367632,
			"target":34962
		},
		{
			"buffer":0,
			"byteLength":4608,
			"byteOffset":371160,
			"target":34963
		},
		{
			"buffer":0,
			"byteLength":288,
			"byteOffset":375768,
			"target":34962
		},
		{
			"buffer":0,
			"byteLength":288,
			"byteOffset":376056,
			"target":34962
		},
		{
			"buffer":0,
			"byteLength":192,
			"byteOffset":376344,
			"target":34962
		},
		{
			"buffer":0,
			"byteLength":72,
			"byteOffset":376536,
			"target":34963
		},
		{
			"buffer":0,
			"byteLength":288,
			"byteOffset":376608,
			"target":34962
		},
		{
			"buffer":0,
			"byteLength":288,
			"byteOffset":376896,
			"target":34962
		},
		{
			"buffer":0,
			"byteLength":192,
			"byteOffset":377184,
			"target":34962
		},
		{
			"buffer":0,
			"byteLength":288,
			"byteOffset":377376,
			"target":34962
		},
		{
			"buffer":0,
			"byteLength":288,
			"byteOffset":377664,
			"target":34962
		},
		{
			"buffer":0,
			"byteLength":192,
			"byteOffset":377952,
			"target":34962
		},
		{
			"buffer":0,
			"byteLength":288,
			"byteOffset":378144,
			"target":34962
		},
		{
			"buffer":0,
			"byteLength":288,
			"byteOffset":378432,
			"target":34962
		},
		{
			"buffer":0,
			"byteLength":192,
			"byteOffset":378720,
			"target":34962
		},
		{
			"buffer":0,
			"byteLength":288,
			"byteOffset":378912,
			"target":34962
		},
		{
			"buffer":0,
			"byteLength":288,
			"byteOffset":379200,
			"target":34962
		},
		{
			"buffer":0,
			"byteLength":192,
			"byteOffset":379488,
			"target":34962
		},
		{
			"buffer":0,
			"byteLength":288,
			"byteOffset":379680,
			"target":34962
		},
		{
			"buffer":0,
			"byteLength":288,
			"byteOffset":379968,
			"target":34962
		},
		{
			"buffer":0,
			"byteLength":192,
			"byteOffset":380256,
			"target":34962
		},
		{
			"buffer":0,
			"byteLength":288,
			"byteOffset":380448,
			"target":34962
		},
		{
			"buffer":0,
			"byteLength":288,
			"byteOffset":380736,
			"target":34962
		},
		{
			"buffer":0,
			"byteLength":192,
			"byteOffset":381024,
			"target":34962
		},
		{
			"buffer":0,
			"byteLength":288,
			"byteOffset":381216,
			"target":34962
		},
		{
			"buffer":0,
			"byteLength":288,
			"byteOffset":381504,
			"target":34962
		},
		{
			"buffer":0,
			"byteLength":192,
			"byteOffset":381792,
			"target":34962
		},
		{
			"buffer":0,
			"byteLength":288,
			"byteOffset":381984,
			"target":34962
		},
		{
			"buffer":0,
			"byteLength":288,
			"byteOffset":382272,
			"target":34962
		},
		{
			"buffer":0,
			"byteLength":192,
			"byteOffset":382560,
			"target":34962
		},
		{
			"buffer":0,
			"byteLength":288,
			"byteOffset":382752,
			"target":34962
		},
		{
			"buffer":0,
			"byteLength":288,
			"byteOffset":383040,
			"target":34962
		},
		{
			"buffer":0,
			"byteLength":192,
			"byteOffset":383328,
			"target":34962
		},
		{
			"buffer":0,
			"byteLength":288,
			"byteOffset":383520,
			"target":34962
		},
		{
			"buffer":0,
			"byteLength":288,
			"byteOffset":383808,
			"target":34962
		},
		{
			"buffer":0,
			"byteLength":192,
			"byteOffset":384096,
			"target":34962
		},
		{
			"buffer":0,
			"byteLength":288,
			"byteOffset":384288,
			"target":34962
		},
		{
			"buffer":0,
			"byteLength":288,
			"byteOffset":384576,
			"target":34962
		},
		{
			"buffer":0,
			"byteLength":192,
			"byteOffset":384864,
			"target":34962
		},
		{
			"buffer":0,
			"byteLength":42120,
			"byteOffset":385056,
			"target":34962
		},
		{
			"buffer":0,
			"byteLength":42120,
			"byteOffset":427176,
			"target":34962
		},
		{
			"buffer":0,
			"byteLength":28080,
			"byteOffset":469296,
			"target":34962
		}
	],
	"samplers":[
		{
			"magFilter":9729,
			"minFilter":9987
		}
	],
	"buffers":[
		{
			"byteLength":497376,
			"uri":"sin_te-buru.bin"
		}
	]
}
